# xmcd
#
# Track frame offsets:
# 150
# 18382
# 34907
# 48029
# 62102
# 71355
# 84625
# 98374
# 109583
# 119270
# 135029
# 148389
# 167323
# 178851
# 194016
# 208934
# 224269
# 234283
#
# Disc length: 3347 seconds
#
# Revision: 0
# Processed by: cddbd v1.4PL0 Copyright (c) Steve Scherf et al.
# Submitted via: Axialis_AX_CDPlayer 2.6
#
DISCID=f60d1112
DTITLE=Waylon Jennings - Waylon
DYEAR=1900
DGENRE=
TTITLE0=T For Texas
TTITLE1=America
TTITLE2=Are You Sure Hank Done it This way
TTITLE3=Bob Willis is Still King
TTITLE4=Brown -Eyed Handsome Man
TTITLE5=This Outlaw Bit Has Done Got Outta Hand
TTITLE6=Good Hearted Woman
TTITLE7=Black Rose
TTITLE8=Good Ol' Boys
TTITLE9=Honky Tonk Heroes
TTITLE10=Drinkin' and Dreamin'
TTITLE11=I've Always Been Crazy
TTITLE12=Ladies Love Outlaws
TTITLE13=Lucille
TTITLE14=Luckenback Texas
TTITLE15=Midnight Rider
TTITLE16=Ruby, Don't Take Your Love To Town
TTITLE17=Suspicious Minds
EXTD=
EXTT0=
EXTT1=
EXTT2=
EXTT3=
EXTT4=
EXTT5=
EXTT6=
EXTT7=
EXTT8=
EXTT9=
EXTT10=
EXTT11=
EXTT12=
EXTT13=
EXTT14=
EXTT15=
EXTT16=
EXTT17=
PLAYORDER=
